<svg width="22" height="14" viewBox="0 0 22 14" fill="none" xmlns="http://www.w3.org/2000/svg">
<path fill-rule="evenodd" clip-rule="evenodd" d="M14.2937 0.293723C14.2006 0.386594 14.1267 0.496921 14.0763 0.618385C14.0259 0.739849 14 0.870063 14 1.00157C14 1.13307 14.0259 1.26329 14.0763 1.38475C14.1267 1.50622 14.2006 1.61654 14.2937 1.70941L19.5853 7.00026L14.2937 12.2911C14.106 12.4788 14.0005 12.7335 14.0005 12.999C14.0005 13.2644 14.106 13.5191 14.2937 13.7068C14.4813 13.8945 14.7359 14 15.0013 14C15.2668 14 15.5213 13.8945 15.709 13.7068L21.7063 7.70811C21.7994 7.61524 21.8733 7.50491 21.9237 7.38344C21.9741 7.26198 22 7.13177 22 7.00026C22 6.86876 21.9741 6.73854 21.9237 6.61708C21.8733 6.49561 21.7994 6.38529 21.7063 6.29242L15.709 0.293723C15.6162 0.200617 15.5059 0.126747 15.3844 0.076345C15.263 0.0259431 15.1328 -4.95169e-08 15.0013 -4.37699e-08C14.8699 -3.8023e-08 14.7397 0.0259431 14.6182 0.076345C14.4968 0.126747 14.3865 0.200617 14.2937 0.293723Z" fill="white"/>
<path fill-rule="evenodd" clip-rule="evenodd" d="M4.37114e-08 7C5.53044e-08 7.26522 0.105357 7.51957 0.292893 7.70711C0.48043 7.89464 0.734784 8 1 8L19 8C19.2652 8 19.5196 7.89464 19.7071 7.70711C19.8946 7.51957 20 7.26522 20 7C20 6.73478 19.8946 6.48043 19.7071 6.29289C19.5196 6.10536 19.2652 6 19 6L1 6C0.734784 6 0.48043 6.10536 0.292893 6.29289C0.105357 6.48043 3.21184e-08 6.73478 4.37114e-08 7Z" fill="white"/>
</svg>
