<svg width="42" height="44" fill="none"><path d="M38.3.6c-.6 0-1.2.2-1.6.4L32 3.2l-9.4 4.6L3.4 17c-.2 0-.8.3-1.4.8-.6.6-1.3 1.8-1.3 3.1 0 1.1.4 2.2 1 2.8.5.6 1.1 1 1.6 1.2l7.5 3.4 2.6 8.9c.3 1 .5 1.7 1 2.3.1.3.4.6.7.8l.3.2H15.7c.3.2.6.2.8.2 1.2 0 1.8-.6 1.8-.6l5-4.8 5.8 6.3c.1.2 1 1.5 3 1.5 1.1 0 2-.7 2.6-1.4.6-.7 1-1.4 1.1-2.3L41.6 6c.2-.9.2-1.8 0-2.7-.2-.8-.7-1.7-1.4-2.2-.7-.4-1.3-.6-2-.5zm-.8 5.1l-5.6 32.5-8.6-9.1-5.7 5.6 1.6-7.2L30.8 14c.6-.6.7-.8.7-1 0-.3-.1-.5-.4-.5-.3 0-.6.3-.8.4A933 933 0 0113 24.3L5.9 21A12129.8 12129.8 0 0137.5 5.7zm-5.7 32.8z" fill="#fff"/></svg>