<svg width="555" height="973" fill="none" xmlns="http://www.w3.org/2000/svg"><path d="M356.2 505.2c-7.7-29.4-98-10.9-112.6-45.7-12.6-30 36.2-86.7 60.2-81.4 7.6 1.6 10.2 9 21.6 11 14.4 2.4 31.8-5.7 32.2-12.9.9-15.7-79.5-100.3-88.1-130.2-9.5-33 99.5-104.5 181-102.5 74.2 1.8 56.4-119.5 116.7-135 43.1-11 63.7 217 93.7 217.5 64.2 1 111.6 182.9 104.6 185.9-5.5 2.4-41.4-105.7-76-100.6-19.4 2.9-36.5 41.1-26.2 63.9 10.5 23.3 47.2 15 96.8 34.5 67 26.1 114 85.6 105.6 100.5C854 530.8 740 463.3 708.2 500c-17.1 19.7-8 66.1 16.9 89.5 31.6 29.7 75.2 9.2 89.9 33 13.4 21.7-4 68.8-37 94.9-63 50-139.8-11-210.8 41.6-31.7 23.5-28.8 45-55.2 50.6-47.2 10-117.4-45.3-128-107.3-8.8-51.7 27.3-88.5 6.6-112-18.4-21-206.2 72.5-213.1 55.7-7.5-18 184.4-119.3 178.7-140.8z" fill="#C3DDB6" fill-opacity=".5" stroke="#BBD9B4" stroke-miterlimit="10"/></svg>