<?xml version="1.0" encoding="utf-8"?><svg xmlns="http://www.w3.org/2000/svg" xmlns:xlink="http://www.w3.org/1999/xlink"><symbol fill="none" viewBox="0 0 22 14" id="ic-arrow" xmlns="http://www.w3.org/2000/svg"><path fill-rule="evenodd" clip-rule="evenodd" d="M14.294.294a1 1 0 000 1.415L19.585 7l-5.291 5.291a1.001 1.001 0 001.415 1.416l5.997-5.999a1 1 0 000-1.416L15.71.294a.998.998 0 00-1.415 0z" fill="#fff"/><path fill-rule="evenodd" clip-rule="evenodd" d="M0 7a1 1 0 001 1h18a1 1 0 100-2H1a1 1 0 00-1 1z" fill="#fff"/></symbol><symbol fill="none" viewBox="0 0 42 44" id="ic-facebook"><path d="M37 .6H5A4.7 4.7 0 00.5 5.3v33.2c0 2.6 2 4.7 4.5 4.7h17.4V26.7h-5.3v-6.4h5.3v-4.8c0-5.5 3.3-8.5 8-8.5 1.6 0 3.2 0 4.8.2V13h-3.3c-2.6 0-3 1.3-3 3.1v4.1H35l-.8 6.5h-5.4v16.5H37c2.5 0 4.6-2.1 4.6-4.7V5.3c0-2.6-2-4.7-4.6-4.7z" fill="#fff"/></symbol><symbol fill="none" viewBox="0 0 43 44" id="ic-instagram"><path d="M12.4.6C6 .6 1 5.9 1 12.4v19c0 6.5 5 11.8 11.4 11.8h18.3C37 43.2 42 38 42 31.4v-19C42 5.9 37 .6 30.7.6H12.4zm22.8 4.7c1.3 0 2.3 1 2.3 2.4 0 1.3-1 2.3-2.3 2.3a2.3 2.3 0 010-4.7zM21.5 10C27.8 10 33 15.3 33 22c0 6.5-5 11.8-11.4 11.8-6.3 0-11.4-5.3-11.4-11.8 0-6.6 5.1-11.9 11.4-11.9zm0 4.8a7 7 0 00-6.8 7c0 4 3 7.2 6.8 7.2a7 7 0 006.9-7.1c0-4-3-7.1-6.9-7.1z" fill="#fff"/></symbol><symbol fill="none" viewBox="0 0 241 79" id="ic-logo"><path d="M44.4 18.1c.4.1.7.4.7.7l-.2.6a56.7 56.7 0 00-.6 6.2 673.1 673.1 0 00-.5 21.8l-.3 10.5-.2 4.8v2.8l.1 2.1v.5c0 .3 0 .4-.3.5h-.3l-2.6.1c-.4 0-.6-.2-.6-.6V57.5a38.1 38.1 0 010-4.7v-8.4l-5.8.2H14.5l-.1 1.9-.1 4.4-.1 7.7a48.1 48.1 0 00.5 8.6c0 .7-.2 1.1-.6 1.3l-1.1.2h-.8c-1.7-.2-3.6 0-5.8.2-.8 0-1.3-.1-1.5-.6l-.2-2V20.8c0-1 .1-1.6.3-1.8.3-.3.6-.5 1.1-.5l1.6.1 1.7-.1 1.2-.1h1.9l1.5.1c.6 0 .9.2 1 .5.1.3.2.6.1 1v.7c0 2.2 0 5-.3 8.6l-.3 7-.2 4.3 4.3.2h2.7a136 136 0 0013.4.1h5.4v-6.2l.2-11.2.2-5c0-.5.3-.7.8-.7h.7l1.1.2 1.3.1zM39.6 68v.1-.1z" fill="#FE4614"/><path d="M61 46.2c0 2 .6 3.7 1.7 5a6 6 0 004.3 2.2 8 8 0 004.3-.7c.2-.2.4-.2.6-.1.2 0 .3.2.3.3v.5l-.5.5c-.6.3-1.4.6-2.3.8-.9.2-1.9.2-3 .2-2.1-.2-4-1-5.5-2.7a9.5 9.5 0 01-2.4-6.8c0-2.6.7-4.6 2.1-6a7 7 0 015.4-2.2 6 6 0 014.6 2c1.2 1.3 1.9 3.2 1.9 5.8v1.2H61zm0-1.5h9.3c0-2.2-.5-3.7-1.3-4.7-.8-.9-1.8-1.4-3-1.4-1.4 0-2.6.6-3.5 1.6-1 1.1-1.5 2.6-1.5 4.5zm25.5 7c-.3 1-1 1.7-2 2.3-1 .6-2.3 1-3.7 1-1.4 0-2.5-.5-3.5-1.3-.9-.8-1.4-2-1.4-3.3a5 5 0 012.5-4.4c1.7-1.1 4-1.7 7-1.7h1.1v-1c0-1.6-.3-2.7-1-3.5a3.8 3.8 0 00-3-1.2c-1.2 0-2.1.3-2.8.9-.8.5-1.1 1.2-1.1 2h-2.4c0-1.1.5-2.1 1.7-3a7.6 7.6 0 014.6-1.3c2 0 3.5.5 4.6 1.5 1.1 1 1.6 2.5 1.6 4.4v11.6h-2.2v-3zm0-5.8c-2.9-.1-5 .2-6.3 1-1.4.7-2 1.8-2 3.1 0 1.1.3 2 1 2.5.6.5 1.3.7 2.2.7 1.2 0 2.4-.4 3.5-1.3 1-1 1.6-2 1.6-3.5V46zm9.8 8.8h-2.2V32.8c0-.7-.1-1.2-.3-1.6-.2-.4-.5-.6-.9-.7l-.7-.3a.4.4 0 01-.2-.4c0-.3.3-.4.8-.4h2.6c.6 0 1 .4 1 1.1v24.2zm8.3-22.4v5.3h4.7v1.5h-4.6v11.7c0 1 .2 1.6.6 2 .5.5 1.2.7 2 .7a22.3 22.3 0 002.4-.2v1.4l-1.4.2-1.5.1c-1 0-1.8 0-2.4-.3-.6-.2-1-.5-1.3-1a3 3 0 01-.5-1.5l-.1-2.2V39h-2.6v-1.4h2.6v-3.2l2.1-2zm11 22.4h-2.2V32.8c0-.7-.1-1.2-.3-1.6-.2-.4-.5-.6-1-.8l-.7-.2a.4.4 0 01-.2-.4c0-.3.3-.4.9-.4h2.5c.6 0 1 .4 1 1.1V42c.3-1.2 1-2.3 2-3.2 1-1 2.4-1.4 3.8-1.4s2.4.5 3.3 1.4c.9 1 1.3 2.8 1.3 5.3v10.6h-2V43.8c0-1.6-.3-2.7-.9-3.4-.5-.8-1.3-1.1-2.2-1.1-1.4 0-2.6.7-3.7 2.3-.9 1.1-1.4 2.8-1.6 5v8zm16.1 6c-1-.3-1.8-.8-2.3-1.5-.6-.8-1-1.7-1-2.8h2.2l.1 1 .4.8c.2.3.4.5.8.7.4.2.8.3 1.2.2.6-.1 1-.4 1.4-1 .4-.5.7-1.2 1-2l.7-2.2-4.7-12.3a12 12 0 00-.8-2c-.3-.6-.7-1-1.1-1.1l-.7-.2-.1-.3c0-.2.2-.4.8-.4h2.8l4.9 13.2 4.4-13.2h1.3c.3 0 .4.1.5.3v.5l-6.3 18c-.7 2.1-1.6 3.4-2.5 3.8-1 .5-2 .6-3 .4zM149.5 41h5.1a4 4 0 002.4-.6c.6-.5.9-1 .9-1.7 0-.3.1-.4.4-.4.3 0 .4.1.4.4v6c0 .4-.1.5-.4.5-.3 0-.4-.1-.4-.4 0-.7-.3-1.2-.9-1.7-.5-.5-1.3-.7-2.4-.7h-5v12.2h-2.4v-21a3 3 0 00-.3-1.6c-.2-.4-.5-.7-1-.8a4 4 0 01-.7-.2.5.5 0 01-.2-.4c0-.3.3-.4.9-.4h14l.1 4c0 .2-.1.3-.4.4-.3 0-.4-.2-.5-.5 0-.7-.4-1.3-.8-1.8s-1.2-.7-2.3-.7h-4.8c-1.1 0-1.7.5-1.7 1.4v8zm15 0c0-.7 0-1.2-.2-1.6-.2-.4-.5-.7-1-.8a4 4 0 01-.7-.2.4.4 0 01-.2-.4c0-.3.3-.5.8-.5h2.5c.6 0 1 .4 1 1.1v2.6a6 6 0 011.6-2.6 5 5 0 013.7-1.3h1.1v2.2c-1.5-.3-3 0-4.3.8-1.2.8-1.9 2-2.1 3.7v10.6h-2.2V41zm14.9 13.6H177V41c0-.7 0-1.2-.3-1.6-.1-.4-.4-.7-.8-.8a4 4 0 01-.8-.2l-.2-.4c0-.3.3-.5.8-.5h2.6c.7 0 1 .4 1 1.1v16zm.4-23.2c0 .5-.2 1-.6 1.3-.3.4-.8.6-1.3.6s-1-.2-1.4-.6c-.3-.3-.5-.8-.5-1.3 0-.6.2-1 .5-1.4.4-.4.9-.5 1.4-.5.5 0 1 .1 1.3.5.4.4.6.8.6 1.4zm6.3 14.7c0 2 .6 3.7 1.6 5a6 6 0 004.4 2.2 8 8 0 004.3-.7c.2-.2.4-.2.6-.1.2 0 .3.2.3.3l-.1.5c0 .2-.2.3-.4.5-.6.3-1.4.6-2.3.8-.9.2-1.9.2-3 .2-2.2-.2-4-1-5.5-2.7a9.5 9.5 0 01-2.4-6.8c0-2.6.7-4.6 2.1-6a7 7 0 015.4-2.2 6 6 0 014.6 2c1.2 1.3 1.9 3.2 1.9 5.8v1.2H186zm0-1.5h9.2c0-2.2-.4-3.7-1.2-4.7-.8-.9-1.9-1.4-3-1.4-1.4 0-2.6.6-3.5 1.6-1 1.1-1.5 2.6-1.5 4.5zm18 10h-2.2V41c0-.7 0-1.2-.3-1.6-.2-.4-.5-.7-1-.8l-.6-.2a.4.4 0 01-.2-.4c0-.3.3-.5.8-.5h2.5c.6 0 1 .4 1 1.1V42c.3-1.3 1-2.4 2-3.3 1.1-1 2.4-1.4 3.9-1.4 1.3 0 2.4.5 3.3 1.4.9 1 1.3 2.8 1.3 5.3v10.6h-2.2V43.8c0-1.6-.3-2.7-.8-3.4-.6-.8-1.3-1.1-2.2-1.1-1.4 0-2.7.7-3.8 2.3-.9 1.2-1.4 3-1.5 5.6v7.5zm16.8-8.5c0 2.3.4 4 1.3 5.3.9 1.3 2 2 3.3 2 1.4 0 2.4-.7 3.3-2 .8-1.2 1.2-2.9 1.2-5v-2.3c0-1.6-.4-3-1.3-4-1-.9-2-1.4-3.3-1.4-1.3 0-2.4.7-3.3 2-.8 1.2-1.2 3-1.2 5.4zM230 52c-1.1 2-2.7 3-4.7 3-2.2 0-3.8-1-5-2.6a10.6 10.6 0 01-1.8-6.3c0-2.7.6-5 1.8-6.5a5.6 5.6 0 014.7-2.4c2.1 0 3.8.8 5 2.3v-6.7c0-.7-.1-1.2-.3-1.6-.2-.4-.5-.6-.9-.7l-.8-.3-.2-.4c0-.3.3-.4.9-.4h2.4c.7 0 1 .4 1 1.1v24.2H230V52z" fill="#fff"/></symbol><symbol fill="none" viewBox="0 0 42 44" id="ic-telegram"><path d="M38.3.6c-.6 0-1.2.2-1.6.4L32 3.2l-9.4 4.6L3.4 17c-.2 0-.8.3-1.4.8-.6.6-1.3 1.8-1.3 3.1 0 1.1.4 2.2 1 2.8.5.6 1.1 1 1.6 1.2l7.5 3.4 2.6 8.9c.3 1 .5 1.7 1 2.3.1.3.4.6.7.8l.3.2h.3c.3.2.6.2.8.2 1.2 0 1.8-.6 1.8-.6l5-4.8 5.8 6.3c.1.2 1 1.5 3 1.5 1.1 0 2-.7 2.6-1.4.6-.7 1-1.4 1.1-2.3L41.6 6c.2-.9.2-1.8 0-2.7-.2-.8-.7-1.7-1.4-2.2-.7-.4-1.3-.6-2-.5zm-.8 5.1l-5.6 32.5-8.6-9.1-5.7 5.6 1.6-7.2L30.8 14c.6-.6.7-.8.7-1 0-.3-.1-.5-.4-.5-.3 0-.6.3-.8.4A933 933 0 0113 24.3L5.9 21A12129.8 12129.8 0 0137.5 5.7zm-5.7 32.8z" fill="#fff"/></symbol></svg>