<?xml version="1.0" encoding="utf-8"?>
<!-- Generator: Adobe Illustrator 23.0.5, SVG Export Plug-In . SVG Version: 6.00 Build 0)  -->
<svg version="1.1" id="Слой_1" xmlns="http://www.w3.org/2000/svg" xmlns:xlink="http://www.w3.org/1999/xlink" x="0px" y="0px"
	 viewBox="0 0 408 535" style="enable-background:new 0 0 408 535;" xml:space="preserve">
<style type="text/css">
	.st0{fill:url(#SVGID_1_);}
	.st1{fill:url(#SVGID_2_);}
	.st2{fill:url(#SVGID_3_);}
	.st3{fill:url(#SVGID_4_);}
	.st4{fill:url(#SVGID_5_);}
	.st5{fill:url(#SVGID_6_);}
	.st6{fill:url(#SVGID_7_);}
	.st7{fill:url(#SVGID_8_);}
	.st8{fill:url(#SVGID_9_);}
	.st9{fill:url(#SVGID_10_);}
	.st10{fill:url(#SVGID_11_);}
	.st11{fill:none;stroke:#000000;stroke-width:0.75;stroke-miterlimit:10;}
	.st12{fill:#EEF5E4;}
	.st13{fill:#FFFFFF;}
	.st14{fill:none;stroke:#004DD1;stroke-width:2;stroke-miterlimit:10;}
	.st15{fill:url(#SVGID_12_);}
</style>
<linearGradient id="SVGID_1_" gradientUnits="userSpaceOnUse" x1="173.0972" y1="478.6248" x2="240.8822" y2="479.2331" gradientTransform="matrix(1 0 0 -1 0 536.0012)">
	<stop  offset="0.0402" style="stop-color:#FFFFFF"/>
	<stop  offset="0.0679" style="stop-color:#D9EBE1"/>
	<stop  offset="0.1015" style="stop-color:#B6D9C6"/>
	<stop  offset="0.1359" style="stop-color:#9DCCB2"/>
	<stop  offset="0.1706" style="stop-color:#8CC4A4"/>
	<stop  offset="0.206" style="stop-color:#82C09B"/>
	<stop  offset="0.2423" style="stop-color:#7CBD96"/>
	<stop  offset="0.2809" style="stop-color:#7ABC95"/>
	<stop  offset="0.3812" style="stop-color:#D6E396"/>
</linearGradient>
<path class="st0" d="M200.01,26.92H186.6v60.56h13.41V26.92z"/>
<linearGradient id="SVGID_2_" gradientUnits="userSpaceOnUse" x1="164.9598" y1="399.9558" x2="227.6788" y2="467.4311" gradientTransform="matrix(1 0 0 -1 0 536.0012)">
	<stop  offset="0.0402" style="stop-color:#68BCD0"/>
	<stop  offset="0.0846" style="stop-color:#6FBCB9"/>
	<stop  offset="0.1314" style="stop-color:#74BCA9"/>
	<stop  offset="0.1793" style="stop-color:#78BC9D"/>
	<stop  offset="0.2285" style="stop-color:#79BC97"/>
	<stop  offset="0.2809" style="stop-color:#7ABC95"/>
	<stop  offset="0.7972" style="stop-color:#D6E396"/>
	<stop  offset="0.9963" style="stop-color:#FFFFFF"/>
</linearGradient>
<path class="st1" d="M237.91,89.99c9.04,8.14,12.72,22.31,7.86,26.97c-3.36,3.21-8.46-0.33-26.14-1.12
	c-9.91-0.43-9.3,0.63-25.6,0.62c-13.89-0.01-12.83-0.79-25.09-0.78c-18.26,0.01-21.96,1.73-25.35-1.31
	c-5.41-4.88-4.75-17.22,1.43-24.68c7.08-8.55,22.15-8.34,51.98-7.57C228.39,82.91,234.55,86.97,237.91,89.99z"/>
<linearGradient id="SVGID_3_" gradientUnits="userSpaceOnUse" x1="99.3532" y1="211.6735" x2="300.421" y2="427.9896" gradientTransform="matrix(1 0 0 -1 0 536.0012)">
	<stop  offset="0.0402" style="stop-color:#68BCD0"/>
	<stop  offset="0.0846" style="stop-color:#6FBCB9"/>
	<stop  offset="0.1314" style="stop-color:#74BCA9"/>
	<stop  offset="0.1793" style="stop-color:#78BC9D"/>
	<stop  offset="0.2285" style="stop-color:#79BC97"/>
	<stop  offset="0.2809" style="stop-color:#7ABC95"/>
	<stop  offset="0.7972" style="stop-color:#D6E396"/>
	<stop  offset="0.9963" style="stop-color:#F5F7E1"/>
</linearGradient>
<path class="st2" d="M332.44,209.99c0.55,3.94,7.59,60.11-30.46,91.12c-12.49,10.18-26.13,14.6-42.04,19.77
	c-27.67,8.98-50.97,9.47-65.74,9.67c-13.37,0.18-31.79,0.32-54.56-5.05c-20.14-4.74-44.4-10.46-63.36-28.41
	c-33.58-31.8-27.31-80.02-26.27-87.09c6.75-45.67,42.83-80.76,80.25-94.13c22.71-8.12,43.98-7.54,65.74-6.94
	c22.79,0.63,44.51,1.22,67.01,11.22C296.68,135.09,326.61,168.51,332.44,209.99z"/>
<linearGradient id="SVGID_4_" gradientUnits="userSpaceOnUse" x1="181.5931" y1="507.1978" x2="207.0761" y2="534.6132" gradientTransform="matrix(1 0 0 -1 0 536.0012)">
	<stop  offset="0.0402" style="stop-color:#68BCD0"/>
	<stop  offset="0.0846" style="stop-color:#6FBCB9"/>
	<stop  offset="0.1314" style="stop-color:#74BCA9"/>
	<stop  offset="0.1793" style="stop-color:#78BC9D"/>
	<stop  offset="0.2285" style="stop-color:#79BC97"/>
	<stop  offset="0.2809" style="stop-color:#7ABC95"/>
	<stop  offset="0.7972" style="stop-color:#D6E396"/>
	<stop  offset="0.9963" style="stop-color:#F5F7E1"/>
</linearGradient>
<path class="st3" d="M193.31,32.39c9.51,0,17.22-7.25,17.22-16.19c0-8.94-7.71-16.19-17.22-16.19c-9.51,0-17.22,7.25-17.22,16.19
	C176.09,25.14,183.8,32.39,193.31,32.39z"/>
<linearGradient id="SVGID_5_" gradientUnits="userSpaceOnUse" x1="331.3885" y1="86.3391" x2="376.0376" y2="174.2281" gradientTransform="matrix(1 0 0 -1 0 536.0012)">
	<stop  offset="0.0402" style="stop-color:#68BCD0"/>
	<stop  offset="0.0846" style="stop-color:#6FBCB9"/>
	<stop  offset="0.1314" style="stop-color:#74BCA9"/>
	<stop  offset="0.1793" style="stop-color:#78BC9D"/>
	<stop  offset="0.2285" style="stop-color:#79BC97"/>
	<stop  offset="0.2809" style="stop-color:#7ABC95"/>
	<stop  offset="0.7972" style="stop-color:#D6E396"/>
	<stop  offset="0.9963" style="stop-color:#F5F7E1"/>
</linearGradient>
<path class="st4" d="M405.18,391.01c0.5,0.88,7.19,13.44-5.31,24.66c-4.1,3.68-9.05,6.13-14.82,8.97c-10.04,4.95-19,7.45-24.68,9
	c-5.15,1.41-12.24,3.32-21.41,4.39c-8.11,0.94-17.88,2.06-26.47-0.24c-15.21-4.09-16.21-16.13-16.32-17.91
	c-0.63-11.49,10.81-23.47,24.3-30.46c8.2-4.24,16.43-6.27,24.88-8.36c8.84-2.19,17.26-4.26,26.65-4.2
	C386.07,376.96,399.99,381.8,405.18,391.01z"/>
<linearGradient id="SVGID_6_" gradientUnits="userSpaceOnUse" x1="116.4717" y1="28.5881" x2="298.1917" y2="224.0892" gradientTransform="matrix(1 0 0 -1 0 536.0012)">
	<stop  offset="0.0402" style="stop-color:#68BCD0"/>
	<stop  offset="0.0846" style="stop-color:#6FBCB9"/>
	<stop  offset="0.1314" style="stop-color:#74BCA9"/>
	<stop  offset="0.1793" style="stop-color:#78BC9D"/>
	<stop  offset="0.2285" style="stop-color:#79BC97"/>
	<stop  offset="0.2809" style="stop-color:#7ABC95"/>
	<stop  offset="0.7972" style="stop-color:#D6E396"/>
	<stop  offset="0.9963" style="stop-color:#F5F7E1"/>
</linearGradient>
<path class="st5" d="M326.32,438.4c-2.34,8.3-10.17,33.09-32.2,57.2c-7.38,8.07-16.24,17.59-31.3,25.66
	c-21.78,11.66-42.25,12.66-52.32,13.03c-6.15,0.23-27.57,0.62-52.32-8.41c-39.92-14.57-73.57-48.17-85.41-89.36
	c-5.2-18.08-11.7-40.69,0.21-60.27c18.51-30.43,67.89-31.22,118.76-32.03c49.31-0.79,118.55-1.9,137.29,34.06
	C338.24,395.98,332.31,417.09,326.32,438.4z"/>
<linearGradient id="SVGID_7_" gradientUnits="userSpaceOnUse" x1="9.2578" y1="125.0114" x2="101.8841" y2="152.0178" gradientTransform="matrix(1 0 0 -1 0 536.0012)">
	<stop  offset="0" style="stop-color:#D6E396"/>
	<stop  offset="0.5543" style="stop-color:#7ABC95"/>
	<stop  offset="0.7598" style="stop-color:#68BCD0"/>
	<stop  offset="0.7994" style="stop-color:#57B8DD"/>
	<stop  offset="0.8417" style="stop-color:#4AB6E8"/>
	<stop  offset="0.8852" style="stop-color:#42B5EE"/>
	<stop  offset="0.9317" style="stop-color:#3EB5F1"/>
	<stop  offset="1" style="stop-color:#3EB5F1"/>
</linearGradient>
<path class="st6" d="M2.12,368.47c8.37-13.64,39.09-11.7,68.61,4.32c29.52,16.02,46.66,40.07,38.28,53.71
	c-8.37,13.64-39.1,11.7-68.61-4.32S-6.25,382.11,2.12,368.47z"/>
<linearGradient id="SVGID_8_" gradientUnits="userSpaceOnUse" x1="-29.7246" y1="311.8204" x2="735.2391" y2="318.6844" gradientTransform="matrix(1 0 0 -1 0 536.0012)">
	<stop  offset="0.0402" style="stop-color:#0E0F0F"/>
	<stop  offset="0.0648" style="stop-color:#101111"/>
	<stop  offset="0.4025" style="stop-color:#373B69"/>
</linearGradient>
<path class="st7" d="M198.33,255.56c43.5,0,78.77-14.97,78.77-33.43c0-18.46-35.26-33.43-78.77-33.43s-78.77,14.97-78.77,33.43
	C119.56,240.6,154.83,255.56,198.33,255.56z"/>
<linearGradient id="SVGID_9_" gradientUnits="userSpaceOnUse" x1="123.8884" y1="313.5016" x2="255.8144" y2="314.6846" gradientTransform="matrix(1 0 0 -1 0 536.0012)">
	<stop  offset="0.0402" style="stop-color:#DAE8BB"/>
	<stop  offset="0.0517" style="stop-color:#DDE9C0"/>
	<stop  offset="0.1074" style="stop-color:#E9F1D6"/>
	<stop  offset="0.1643" style="stop-color:#F1F6E6"/>
	<stop  offset="0.2227" style="stop-color:#F7FAF0"/>
	<stop  offset="0.2849" style="stop-color:#F9FBF3"/>
	<stop  offset="0.7829" style="stop-color:#373B69"/>
</linearGradient>
<path class="st8" d="M163.22,233.82c7.5,0,13.58-5.23,13.58-11.67c0-6.45-6.08-11.67-13.58-11.67c-7.5,0-13.58,5.23-13.58,11.67
	C149.63,228.59,155.71,233.82,163.22,233.82z"/>
<linearGradient id="SVGID_10_" gradientUnits="userSpaceOnUse" x1="136.7253" y1="313.6288" x2="225.6622" y2="314.4268" gradientTransform="matrix(1 0 0 -1 0 536.0012)">
	<stop  offset="0.1849" style="stop-color:#000000"/>
	<stop  offset="0.1999" style="stop-color:#0A0A0A"/>
	<stop  offset="0.2348" style="stop-color:#131212"/>
	<stop  offset="0.2705" style="stop-color:#161516"/>
	<stop  offset="0.3066" style="stop-color:#161617"/>
	<stop  offset="0.3433" style="stop-color:#151618"/>
	<stop  offset="0.381" style="stop-color:#141518"/>
	<stop  offset="0.4211" style="stop-color:#141518"/>
	<stop  offset="1" style="stop-color:#373B69"/>
</linearGradient>
<path class="st9" d="M163.24,230.74c5.06,0,9.16-3.85,9.16-8.61c0-4.76-4.1-8.61-9.16-8.61c-5.06,0-9.16,3.85-9.16,8.61
	C154.09,226.89,158.19,230.74,163.24,230.74z"/>
<linearGradient id="SVGID_11_" gradientUnits="userSpaceOnUse" x1="167.8391" y1="248.2912" x2="231.5634" y2="248.8633" gradientTransform="matrix(1 0 0 -1 0 536.0012)">
	<stop  offset="0.0402" style="stop-color:#0E0F0F"/>
	<stop  offset="0.064" style="stop-color:#151A19"/>
	<stop  offset="0.1052" style="stop-color:#192620"/>
	<stop  offset="0.1473" style="stop-color:#21312A"/>
	<stop  offset="0.1901" style="stop-color:#273A30"/>
	<stop  offset="0.2341" style="stop-color:#2B4035"/>
	<stop  offset="0.2809" style="stop-color:#2D4236"/>
	<stop  offset="0.6023" style="stop-color:#373B69"/>
</linearGradient>
<path class="st10" d="M167.81,284.91c2.5,2.14,14.1,11.59,31.19,10.72c19.46-0.99,30.75-14.58,32.49-16.74"/>
<path class="st11" d="M167.81,284.91c2.5,2.14,14.1,11.59,31.19,10.72c11.55-0.59,20.14-5.87,24.28-8.93
	c3.74-2.76,6.42-5.63,8.21-7.81"/>
<path class="st12" d="M284.2,157.96c1.42,3.08,4.3,10.51,2.51,11.51c-1.54,0.86-5.4-3.71-16.93-14.82
	c-12.66-12.21-16.03-14.39-15.26-15.61c1.33-2.13,13.91,0.67,22.14,8.2C281.09,151.3,283.19,155.77,284.2,157.96z"/>
<path class="st12" d="M311.45,393.2c0.99,2.57,3,8.75,1.76,9.59c-1.08,0.73-3.77-3.09-11.84-12.34c-8.85-10.15-11.21-11.98-10.67-13
	c0.93-1.77,9.72,0.56,15.48,6.83C309.28,387.65,310.76,391.37,311.45,393.2z"/>
<path class="st12" d="M295.63,428.94c0.24,1.62,0.72,5.52,0.42,6.05c-0.26,0.46-0.91-1.95-2.84-7.8c-2.13-6.41-2.69-7.56-2.56-8.2
	c0.22-1.11,2.34,0.35,3.72,4.31C295.11,425.43,295.46,427.79,295.63,428.94z"/>
<path class="st13" d="M160.67,222.13c0.74,0,1.34-0.56,1.34-1.26c0-0.7-0.6-1.26-1.34-1.26s-1.34,0.56-1.34,1.26
	C159.33,221.57,159.93,222.13,160.67,222.13z"/>
<line class="st14" x1="216.77" y1="224.43" x2="239.06" y2="224.77"/>
<linearGradient id="SVGID_12_" gradientUnits="userSpaceOnUse" x1="178.766" y1="284.8949" x2="178.766" y2="284.8949">
	<stop  offset="0.0402" style="stop-color:#68BCD0"/>
	<stop  offset="0.0846" style="stop-color:#6FBCB9"/>
	<stop  offset="0.1314" style="stop-color:#74BCA9"/>
	<stop  offset="0.1793" style="stop-color:#78BC9D"/>
	<stop  offset="0.2285" style="stop-color:#79BC97"/>
	<stop  offset="0.2809" style="stop-color:#7ABC95"/>
	<stop  offset="0.7972" style="stop-color:#D6E396"/>
	<stop  offset="0.9963" style="stop-color:#F5F7E1"/>
</linearGradient>
<path class="st15" d="M178.77,284.89"/>
</svg>
