<svg width="411" height="830" fill="none" xmlns="http://www.w3.org/2000/svg"><path d="M-278.6 339c87.9-18.2 47.4-107 118.2-92.7 24.8 5 72.1 37.5 166.7 102.5 95.9 66-99.5-250.8-75.5-256 14.4-3 238.7 330 248.5 233.2 8.2-81.1 12.5-121.5 25.3-112.6 28.3 19.8 91 144.3 112.9 233.9C346 563.9 298.2 592 287.3 598.4c-25.4 15-54.8 6.3-113.7-11.1-114.2-33.7-165.4-89-211.4-68.1-14.6 6.7-41.4 26.8-45.9 30.1-30.1 22.6-30.4 29-46 35.3-31 12.6-57.8 23.6-97.8-16.6-47.9-48.2-97-152.4-97-198.8.2-29.2 19.8-24.7 46-30.1z" fill="#C3DDB6" fill-opacity=".2" stroke="#BBD9B4" stroke-miterlimit="10"/></svg>