<svg width="482" height="939" fill="none" xmlns="http://www.w3.org/2000/svg"><path d="M-521 646c14.3 7.5 27 10.2 52.4 15.5 54.7 11.4 122.2 25.6 155.4-8.4 22.1-22.5 19.7-56.4 19-63.4-4-37.9-31.4-58.4-49.2-73.2-76.8-63.4-111.1-148.5-105.4-153.7 9.3-8.6 158.2 161.4 197.5 133.4 29.7-21.3-17.6-145.7 1.4-155.7 17.5-9.2 51.2 27.8 135.6 31.6 28.3 1.3 68.7 60.4 85.4 34.3 47.4-74.3-161.6-205-121.5-264.6 21.9-32.3 114.8-40.4 158.3-.4 51.5 47.4-6.3 126 39.8 176.8 60.2 66.4 216.7-7.7 232.7 45.2 10.4 34.7-49 66.8-51.5 121.7-4.4 96.3 189.8 122 176.7 157-8.8 23.3-91.1 2.4-166.2 59.4C175.8 749.8 158 823.3 139 821c-17-2 4.3-61-29.9-102.1-20-24-59.6-42.8-81.3-29.1C-10.6 714 83.5 831.6 22 965.8c-6.4 14-38.6 80.9-85.5 92.6-27.6 7-41.4-8.6-74.5-21.3-92.1-35.3-178.5 12-185.1-10.6-8.8-30 137.3-131.7 144.2-123.5 6.9 8.2-119.1 136.7-144.2 123.5-22-11.7 63.3-117.8 32.2-202-23.2-63-105.8-98.8-149.9-73-60.2 35.5-46.3 185.3-65 189.1-17 3.6-13.7-125.5-62.2-129.1-30-2.3-52.8 45.4-121.8 100.2-91 72.2-187.9 98-191.7 88.9-7.4-17.6 325.7-194.5 311.2-284.3-5.1-31.8-51.6-37.3-56.1-93-2.7-31.9 9.5-68 22.4-71.8 18.7-5.4 21.4 61.8 83 94.5z" fill="#FED172" fill-opacity=".3"/></svg>