<svg width="949" height="978" fill="none" xmlns="http://www.w3.org/2000/svg"><path d="M529.2 23c14.4 21.4-3.7 55.3-11.2 69.5-17.6 33.2-39.5 39.5-37.7 60.7 1.5 16.7 17.3 36.3 37 41.6 49.5 13.3 99.7-71.4 128.1-59.2 26.2 11.1-9 86.1 28.4 114.1 40.3 30.2 124.5-24.8 145.6-1 13.8 15.8-6.8 57.6-38.8 80.1-31.6 22.3 137.5-5.4 33.5 56-12.4 35 140.5 71.3 133.9 140.6-4.5 45.9-118.7 57.6-148.1 139-13.7 38 10.7 66.5-11.9 84.1-26.6 20.8-69-7.3-114 19.2a135 135 0 00-35.3 32.4c-17.6 22.7-13.4 32.6-25.2 44.5-22.8 23-58.3 5.5-94.8 17.5-66 21.6-69.6 117.5-86.5 115.1-23-3.3 3.7-178-60.3-203.2-35-13.7-75.2 25.9-97.2 9.7-29.3-21.7 21-107 1.2-117.3-12.2-6.4-32.1 25.8-79.4 40.9C147.3 723 78.1 717 62 690.3c-19.8-33 60.8-64.5 59.9-132.6-.8-56.6-65.9-68.2-106-170.9-3.8-9.8-26.8-68.7-7.5-79.4 10.2-5.6 24 6.8 65.8 18.8 35.7 10.3 66.8 19.3 82.7 7.8 16.4-11.8 10.7-40.6 1.9-85.6-10.4-52.9-23.7-68.5-12.6-80.1 17.7-18.6 59.2 9.7 98.9-9.4 29.9-14.4 20.8-37.5 55.9-80.6C313 63.5 343 27.6 394.4 11c46.3-15 116-16.2 134.8 12z" fill="#D7E7BE"/></svg>